<svg width="30" height="29" viewBox="0 0 30 29" fill="none" xmlns="http://www.w3.org/2000/svg">
<path d="M29.0996 9.23067C28.8895 8.50148 28.3988 7.8854 27.735 7.5175C27.0713 7.14959 26.2888 7.05991 25.5591 7.26811L17.3338 9.62668C17.2878 9.63993 17.2394 9.64264 17.1922 9.6346C17.145 9.62655 17.1003 9.60797 17.0613 9.58022C17.0223 9.55248 16.9901 9.51629 16.967 9.47435C16.9439 9.43242 16.9306 9.38582 16.9281 9.33803C16.8623 7.30762 16.6023 5.28816 16.1517 3.30729C15.912 2.27192 15.2942 1.36345 14.4194 0.760041C14.0649 0.532049 13.6662 0.381629 13.2494 0.318659C12.8326 0.255689 12.4073 0.281594 12.0012 0.394673C11.684 0.468674 11.385 0.606022 11.1222 0.79847C10.8594 0.990918 10.6383 1.2345 10.472 1.51457C10.3057 1.79465 10.1977 2.10545 10.1545 2.4283C10.1114 2.75115 10.1339 3.0794 10.2208 3.39332C10.8896 5.64116 10.6699 8.05999 9.60699 10.1505C8.54408 12.2411 6.7191 13.8437 4.50877 14.6277L0.84003 15.6796C0.596778 15.7494 0.391197 15.9129 0.268513 16.1342C0.14583 16.3556 0.116093 16.6166 0.185844 16.8598L3.34183 27.866C3.41158 28.1093 3.5751 28.3149 3.79643 28.4376C4.01776 28.5602 4.27876 28.59 4.52201 28.5202C10.0642 26.931 12.0932 27.1896 13.8823 27.4151C15.4817 27.6947 17.1246 27.5896 18.6754 27.1087L26.6243 24.8294C27.0918 24.6951 27.5173 24.444 27.8608 24.0997C28.2044 23.7554 28.4545 23.3292 28.5878 22.8615C28.721 22.3937 28.7329 21.8997 28.6223 21.4261C28.5117 20.9524 28.2824 20.5147 27.9558 20.1543C28.507 19.6413 28.834 18.9319 28.8659 18.1797C28.8979 17.4274 28.6324 16.6928 28.1267 16.1349C28.6779 15.6219 29.0049 14.9125 29.0369 14.1603C29.0689 13.408 28.8033 12.6734 28.2977 12.1155C28.6845 11.7555 28.9642 11.2954 29.1057 10.7862C29.2473 10.2771 29.2451 9.7387 29.0996 9.23067Z" fill="black"/>
</svg>
